<svg xmlns="http://www.w3.org/2000/svg" xmlns:xlink="http://www.w3.org/1999/xlink" width="600" zoomAndPan="magnify" viewBox="0 0 450 149.999998" height="200" preserveAspectRatio="xMidYMid meet" version="1.0"><defs><g/><clipPath id="ced479df3e"><path d="M 224.585938 67.1875 L 231.703125 67.1875 L 231.703125 74.460938 L 224.585938 74.460938 Z M 224.585938 67.1875 " clip-rule="nonzero"/></clipPath><clipPath id="3654d7f5e5"><path d="M 212.6875 70.914062 L 224.976562 70.914062 L 224.976562 81.261719 L 212.6875 81.261719 Z M 212.6875 70.914062 " clip-rule="nonzero"/></clipPath></defs><g fill="#282120" fill-opacity="1"><g transform="translate(112.459494, 80.487965)"><g><path d="M 7.171875 0 L 7.171875 -15.015625 L 1.53125 -15.015625 L 1.53125 -17.625 L 15.6875 -17.625 L 15.6875 -15.015625 L 9.90625 -15.015625 L 9.90625 0 Z M 7.171875 0 "/></g></g></g><g fill="#282120" fill-opacity="1"><g transform="translate(129.685083, 80.487965)"><g><path d="M 10.828125 -13.5 C 12.066406 -13.5 13.066406 -13.242188 13.828125 -12.734375 C 14.585938 -12.234375 15.132812 -11.566406 15.46875 -10.734375 C 15.800781 -9.910156 15.96875 -8.984375 15.96875 -7.953125 L 15.96875 0 L 13.375 0 L 13.375 -7.6875 C 13.375 -8.707031 13.085938 -9.546875 12.515625 -10.203125 C 11.941406 -10.867188 11.09375 -11.179688 9.96875 -11.140625 C 9.1875 -11.140625 8.488281 -10.960938 7.875 -10.609375 C 7.257812 -10.265625 6.773438 -9.820312 6.421875 -9.28125 C 6.066406 -8.738281 5.890625 -8.179688 5.890625 -7.609375 L 5.890625 0 L 3.296875 0 L 3.296875 -18.640625 L 5.890625 -18.640625 L 5.890625 -11.078125 C 6.398438 -11.734375 7.085938 -12.300781 7.953125 -12.78125 C 8.828125 -13.257812 9.785156 -13.5 10.828125 -13.5 Z M 10.828125 -13.5 "/></g></g></g><g fill="#282120" fill-opacity="1"><g transform="translate(148.900181, 80.487965)"><g><path d="M 15.59375 -1.734375 L 15.5625 -1.734375 C 15.144531 -1.398438 14.617188 -1.078125 13.984375 -0.765625 C 13.359375 -0.453125 12.664062 -0.203125 11.90625 -0.015625 C 11.15625 0.160156 10.382812 0.25 9.59375 0.25 C 8.0625 0.25 6.707031 -0.0351562 5.53125 -0.609375 C 4.363281 -1.191406 3.453125 -1.988281 2.796875 -3 C 2.140625 -4.019531 1.8125 -5.175781 1.8125 -6.46875 C 1.8125 -7.945312 2.15625 -9.210938 2.84375 -10.265625 C 3.53125 -11.316406 4.445312 -12.125 5.59375 -12.6875 C 6.75 -13.25 8.007812 -13.53125 9.375 -13.53125 C 10.632812 -13.53125 11.773438 -13.253906 12.796875 -12.703125 C 13.816406 -12.160156 14.632812 -11.410156 15.25 -10.453125 C 15.863281 -9.492188 16.171875 -8.378906 16.171875 -7.109375 L 16.140625 -5.890625 L 4.4375 -5.890625 C 4.632812 -4.734375 5.226562 -3.816406 6.21875 -3.140625 C 7.207031 -2.472656 8.453125 -2.140625 9.953125 -2.140625 C 11.046875 -2.140625 11.9375 -2.3125 12.625 -2.65625 C 13.320312 -3 13.898438 -3.332031 14.359375 -3.65625 Z M 9.375 -11.140625 C 8.175781 -11.140625 7.128906 -10.898438 6.234375 -10.421875 C 5.347656 -9.941406 4.773438 -9.117188 4.515625 -7.953125 L 13.53125 -7.953125 L 13.53125 -8.234375 C 13.457031 -8.804688 13.21875 -9.3125 12.8125 -9.75 C 12.414062 -10.1875 11.910156 -10.523438 11.296875 -10.765625 C 10.679688 -11.015625 10.039062 -11.140625 9.375 -11.140625 Z M 9.375 -11.140625 "/></g></g></g><g fill="#282120" fill-opacity="1"><g transform="translate(167.133125, 80.487965)"><g/></g></g><g fill="#282120" fill-opacity="1"><g transform="translate(176.249591, 80.487965)"><g><path d="M 18.078125 -2.34375 C 17.679688 -1.9375 17.132812 -1.535156 16.4375 -1.140625 C 15.738281 -0.742188 14.9375 -0.410156 14.03125 -0.140625 C 13.125 0.117188 12.160156 0.25 11.140625 0.25 C 9.859375 0.25 8.660156 0.0351562 7.546875 -0.390625 C 6.441406 -0.816406 5.472656 -1.425781 4.640625 -2.21875 C 3.816406 -3.007812 3.171875 -3.960938 2.703125 -5.078125 C 2.242188 -6.191406 2.015625 -7.4375 2.015625 -8.8125 C 2.015625 -10.101562 2.253906 -11.296875 2.734375 -12.390625 C 3.222656 -13.484375 3.898438 -14.429688 4.765625 -15.234375 C 5.628906 -16.046875 6.613281 -16.671875 7.71875 -17.109375 C 8.832031 -17.554688 10.015625 -17.78125 11.265625 -17.78125 C 12.304688 -17.78125 13.28125 -17.632812 14.1875 -17.34375 C 15.101562 -17.050781 15.914062 -16.675781 16.625 -16.21875 C 17.34375 -15.769531 17.914062 -15.289062 18.34375 -14.78125 L 16.59375 -12.71875 C 15.851562 -13.40625 15.035156 -13.972656 14.140625 -14.421875 C 13.242188 -14.867188 12.25 -15.09375 11.15625 -15.09375 C 10.082031 -15.09375 9.054688 -14.835938 8.078125 -14.328125 C 7.109375 -13.828125 6.316406 -13.101562 5.703125 -12.15625 C 5.085938 -11.21875 4.78125 -10.101562 4.78125 -8.8125 C 4.78125 -7.40625 5.09375 -6.226562 5.71875 -5.28125 C 6.351562 -4.34375 7.175781 -3.632812 8.1875 -3.15625 C 9.207031 -2.675781 10.304688 -2.4375 11.484375 -2.4375 C 12.679688 -2.4375 13.710938 -2.664062 14.578125 -3.125 C 15.453125 -3.59375 16.175781 -4.078125 16.75 -4.578125 Z M 18.078125 -2.34375 "/></g></g></g><g fill="#282120" fill-opacity="1"><g transform="translate(196.39649, 80.487965)"><g><path d="M 3.203125 0 L 3.203125 -18.640625 L 5.796875 -18.640625 L 5.796875 0 Z M 3.203125 0 "/></g></g></g><g fill="#282120" fill-opacity="1"><g transform="translate(231.831788, 78.839657)"><g><path d="M 13.328125 -5.96875 L 13.328125 -13.21875 L 15.921875 -13.21875 L 15.921875 0 L 13.328125 0 L 13.328125 -2.21875 C 12.890625 -1.582031 12.238281 -1.007812 11.375 -0.5 C 10.507812 0 9.460938 0.25 8.234375 0.25 C 6.703125 0.25 5.460938 -0.269531 4.515625 -1.3125 C 3.566406 -2.363281 3.09375 -3.816406 3.09375 -5.671875 L 3.09375 -13.21875 L 5.6875 -13.21875 L 5.6875 -6.46875 C 5.6875 -5.175781 5.96875 -4.128906 6.53125 -3.328125 C 7.09375 -2.535156 8.015625 -2.140625 9.296875 -2.140625 C 10.035156 -2.140625 10.707031 -2.296875 11.3125 -2.609375 C 11.925781 -2.921875 12.414062 -3.359375 12.78125 -3.921875 C 13.144531 -4.492188 13.328125 -5.175781 13.328125 -5.96875 Z M 13.328125 -5.96875 "/></g></g></g><g fill="#282120" fill-opacity="1"><g transform="translate(250.845413, 78.839657)"><g><path d="M 16.421875 -18.640625 L 16.421875 0 L 13.828125 0 L 13.828125 -2.0625 C 13.523438 -1.675781 13.117188 -1.304688 12.609375 -0.953125 C 12.097656 -0.597656 11.515625 -0.304688 10.859375 -0.078125 C 10.203125 0.140625 9.492188 0.25 8.734375 0.25 C 7.390625 0.25 6.191406 -0.0390625 5.140625 -0.625 C 4.097656 -1.21875 3.28125 -2.035156 2.6875 -3.078125 C 2.101562 -4.117188 1.8125 -5.300781 1.8125 -6.625 C 1.8125 -7.96875 2.113281 -9.15625 2.71875 -10.1875 C 3.320312 -11.21875 4.148438 -12.023438 5.203125 -12.609375 C 6.253906 -13.203125 7.441406 -13.5 8.765625 -13.5 C 9.867188 -13.5 10.863281 -13.296875 11.75 -12.890625 C 12.644531 -12.492188 13.335938 -12.015625 13.828125 -11.453125 L 13.828125 -18.640625 Z M 9.1875 -2.046875 C 10.132812 -2.046875 10.960938 -2.242188 11.671875 -2.640625 C 12.390625 -3.046875 12.941406 -3.59375 13.328125 -4.28125 C 13.722656 -4.96875 13.921875 -5.75 13.921875 -6.625 C 13.921875 -7.5 13.722656 -8.28125 13.328125 -8.96875 C 12.941406 -9.65625 12.390625 -10.195312 11.671875 -10.59375 C 10.960938 -10.988281 10.132812 -11.1875 9.1875 -11.1875 C 8.269531 -11.1875 7.453125 -10.988281 6.734375 -10.59375 C 6.023438 -10.195312 5.46875 -9.65625 5.0625 -8.96875 C 4.65625 -8.28125 4.453125 -7.5 4.453125 -6.625 C 4.453125 -5.75 4.65625 -4.96875 5.0625 -4.28125 C 5.46875 -3.59375 6.023438 -3.046875 6.734375 -2.640625 C 7.453125 -2.242188 8.269531 -2.046875 9.1875 -2.046875 Z M 9.1875 -2.046875 "/></g></g></g><g fill="#282120" fill-opacity="1"><g transform="translate(270.136065, 78.839657)"><g/></g></g><g fill="#282120" fill-opacity="1"><g transform="translate(279.252531, 78.839657)"><g><path d="M 18.078125 -2.34375 C 17.679688 -1.9375 17.132812 -1.535156 16.4375 -1.140625 C 15.738281 -0.742188 14.9375 -0.410156 14.03125 -0.140625 C 13.125 0.117188 12.160156 0.25 11.140625 0.25 C 9.859375 0.25 8.660156 0.0351562 7.546875 -0.390625 C 6.441406 -0.816406 5.472656 -1.425781 4.640625 -2.21875 C 3.816406 -3.007812 3.171875 -3.960938 2.703125 -5.078125 C 2.242188 -6.191406 2.015625 -7.4375 2.015625 -8.8125 C 2.015625 -10.101562 2.253906 -11.296875 2.734375 -12.390625 C 3.222656 -13.484375 3.898438 -14.429688 4.765625 -15.234375 C 5.628906 -16.046875 6.613281 -16.671875 7.71875 -17.109375 C 8.832031 -17.554688 10.015625 -17.78125 11.265625 -17.78125 C 12.304688 -17.78125 13.28125 -17.632812 14.1875 -17.34375 C 15.101562 -17.050781 15.914062 -16.675781 16.625 -16.21875 C 17.34375 -15.769531 17.914062 -15.289062 18.34375 -14.78125 L 16.59375 -12.71875 C 15.851562 -13.40625 15.035156 -13.972656 14.140625 -14.421875 C 13.242188 -14.867188 12.25 -15.09375 11.15625 -15.09375 C 10.082031 -15.09375 9.054688 -14.835938 8.078125 -14.328125 C 7.109375 -13.828125 6.316406 -13.101562 5.703125 -12.15625 C 5.085938 -11.21875 4.78125 -10.101562 4.78125 -8.8125 C 4.78125 -7.40625 5.09375 -6.226562 5.71875 -5.28125 C 6.351562 -4.34375 7.175781 -3.632812 8.1875 -3.15625 C 9.207031 -2.675781 10.304688 -2.4375 11.484375 -2.4375 C 12.679688 -2.4375 13.710938 -2.664062 14.578125 -3.125 C 15.453125 -3.59375 16.175781 -4.078125 16.75 -4.578125 Z M 18.078125 -2.34375 "/></g></g></g><g fill="#282120" fill-opacity="1"><g transform="translate(299.39943, 78.839657)"><g><path d="M 17 -6.625 C 17 -5.28125 16.671875 -4.09375 16.015625 -3.0625 C 15.359375 -2.03125 14.460938 -1.21875 13.328125 -0.625 C 12.203125 -0.0390625 10.914062 0.25 9.46875 0.25 C 8.019531 0.25 6.722656 -0.0390625 5.578125 -0.625 C 4.441406 -1.21875 3.546875 -2.03125 2.890625 -3.0625 C 2.242188 -4.09375 1.921875 -5.28125 1.921875 -6.625 C 1.921875 -7.96875 2.242188 -9.15625 2.890625 -10.1875 C 3.546875 -11.21875 4.441406 -12.023438 5.578125 -12.609375 C 6.722656 -13.203125 8.019531 -13.5 9.46875 -13.5 C 10.914062 -13.5 12.203125 -13.203125 13.328125 -12.609375 C 14.460938 -12.023438 15.359375 -11.21875 16.015625 -10.1875 C 16.671875 -9.15625 17 -7.96875 17 -6.625 Z M 14.359375 -6.625 C 14.367188 -7.507812 14.160156 -8.289062 13.734375 -8.96875 C 13.304688 -9.65625 12.71875 -10.1875 11.96875 -10.5625 C 11.226562 -10.945312 10.394531 -11.140625 9.46875 -11.140625 C 8.539062 -11.140625 7.703125 -10.945312 6.953125 -10.5625 C 6.210938 -10.1875 5.625 -9.65625 5.1875 -8.96875 C 4.75 -8.289062 4.539062 -7.507812 4.5625 -6.625 C 4.539062 -5.75 4.75 -4.972656 5.1875 -4.296875 C 5.625 -3.617188 6.210938 -3.082031 6.953125 -2.6875 C 7.703125 -2.300781 8.539062 -2.109375 9.46875 -2.109375 C 10.394531 -2.109375 11.226562 -2.300781 11.96875 -2.6875 C 12.71875 -3.082031 13.304688 -3.617188 13.734375 -4.296875 C 14.160156 -4.972656 14.367188 -5.75 14.359375 -6.625 Z M 14.359375 -6.625 "/></g></g></g><g fill="#282120" fill-opacity="1"><g transform="translate(318.312325, 78.839657)"><g><path d="M 10.625 -13.453125 C 11.75 -13.453125 12.6875 -13.210938 13.4375 -12.734375 C 14.195312 -12.253906 14.738281 -11.5625 15.0625 -10.65625 C 15.34375 -11.0625 15.742188 -11.476562 16.265625 -11.90625 C 16.785156 -12.34375 17.390625 -12.707031 18.078125 -13 C 18.773438 -13.300781 19.523438 -13.453125 20.328125 -13.453125 C 21.585938 -13.453125 22.578125 -13.195312 23.296875 -12.6875 C 24.015625 -12.1875 24.519531 -11.507812 24.8125 -10.65625 C 25.113281 -9.8125 25.265625 -8.867188 25.265625 -7.828125 L 25.265625 0 L 22.640625 0 L 22.640625 -7.578125 C 22.640625 -8.609375 22.414062 -9.445312 21.96875 -10.09375 C 21.53125 -10.738281 20.753906 -11.0625 19.640625 -11.0625 C 18.835938 -11.0625 18.113281 -10.890625 17.46875 -10.546875 C 16.832031 -10.210938 16.332031 -9.757812 15.96875 -9.1875 C 15.613281 -8.625 15.4375 -7.992188 15.4375 -7.296875 L 15.4375 0 L 12.828125 0 L 12.828125 -7.625 C 12.828125 -8.632812 12.578125 -9.457031 12.078125 -10.09375 C 11.578125 -10.738281 10.757812 -11.0625 9.625 -11.0625 C 8.863281 -11.0625 8.1875 -10.882812 7.59375 -10.53125 C 7 -10.175781 6.53125 -9.734375 6.1875 -9.203125 C 5.851562 -8.671875 5.6875 -8.125 5.6875 -7.5625 L 5.6875 0 L 3.078125 0 L 3.078125 -13.21875 L 5.6875 -13.21875 L 5.6875 -11.109375 C 6.15625 -11.691406 6.816406 -12.226562 7.671875 -12.71875 C 8.535156 -13.207031 9.519531 -13.453125 10.625 -13.453125 Z M 10.625 -13.453125 "/></g></g></g><g fill="#282120" fill-opacity="1"><g transform="translate(346.593523, 78.839657)"><g><path d="M 10.90625 -13.453125 C 12.25 -13.453125 13.4375 -13.160156 14.46875 -12.578125 C 15.5 -12.003906 16.304688 -11.203125 16.890625 -10.171875 C 17.484375 -9.148438 17.78125 -7.96875 17.78125 -6.625 C 17.78125 -5.300781 17.484375 -4.117188 16.890625 -3.078125 C 16.304688 -2.046875 15.503906 -1.234375 14.484375 -0.640625 C 13.460938 -0.0546875 12.296875 0.234375 10.984375 0.234375 C 9.867188 0.234375 8.867188 0.0195312 7.984375 -0.40625 C 7.097656 -0.84375 6.410156 -1.328125 5.921875 -1.859375 L 5.921875 5.546875 L 3.296875 5.546875 L 3.296875 -13.25 L 5.921875 -13.25 L 5.921875 -11.234375 C 6.203125 -11.597656 6.59375 -11.953125 7.09375 -12.296875 C 7.601562 -12.648438 8.1875 -12.929688 8.84375 -13.140625 C 9.5 -13.347656 10.1875 -13.453125 10.90625 -13.453125 Z M 10.546875 -11.0625 C 9.628906 -11.0625 8.804688 -10.867188 8.078125 -10.484375 C 7.359375 -10.097656 6.796875 -9.570312 6.390625 -8.90625 C 5.992188 -8.238281 5.796875 -7.476562 5.796875 -6.625 C 5.796875 -5.78125 5.992188 -5.019531 6.390625 -4.34375 C 6.796875 -3.675781 7.359375 -3.144531 8.078125 -2.75 C 8.804688 -2.363281 9.628906 -2.171875 10.546875 -2.171875 C 11.472656 -2.171875 12.289062 -2.363281 13 -2.75 C 13.71875 -3.144531 14.273438 -3.675781 14.671875 -4.34375 C 15.078125 -5.019531 15.28125 -5.78125 15.28125 -6.625 C 15.28125 -7.476562 15.078125 -8.238281 14.671875 -8.90625 C 14.273438 -9.570312 13.71875 -10.097656 13 -10.484375 C 12.289062 -10.867188 11.472656 -11.0625 10.546875 -11.0625 Z M 10.546875 -11.0625 "/></g></g></g><g fill="#282120" fill-opacity="1"><g transform="translate(366.287111, 78.839657)"><g><path d="M 16.375 -13.21875 L 16.375 0 L 13.78125 0 L 13.78125 -2.171875 C 13.476562 -1.765625 13.066406 -1.375 12.546875 -1 C 12.023438 -0.632812 11.421875 -0.332031 10.734375 -0.09375 C 10.054688 0.132812 9.320312 0.25 8.53125 0.25 C 7.226562 0.25 6.066406 -0.0390625 5.046875 -0.625 C 4.035156 -1.21875 3.238281 -2.035156 2.65625 -3.078125 C 2.070312 -4.117188 1.78125 -5.3125 1.78125 -6.65625 C 1.78125 -8 2.082031 -9.179688 2.6875 -10.203125 C 3.300781 -11.222656 4.140625 -12.023438 5.203125 -12.609375 C 6.265625 -13.203125 7.484375 -13.5 8.859375 -13.5 C 9.953125 -13.5 10.921875 -13.285156 11.765625 -12.859375 C 12.617188 -12.441406 13.289062 -11.957031 13.78125 -11.40625 L 13.78125 -13.21875 Z M 9.140625 -2.140625 C 10.066406 -2.140625 10.882812 -2.335938 11.59375 -2.734375 C 12.3125 -3.128906 12.867188 -3.660156 13.265625 -4.328125 C 13.671875 -5.003906 13.875 -5.78125 13.875 -6.65625 C 13.875 -7.488281 13.671875 -8.238281 13.265625 -8.90625 C 12.867188 -9.582031 12.3125 -10.117188 11.59375 -10.515625 C 10.882812 -10.910156 10.066406 -11.109375 9.140625 -11.109375 C 8.210938 -11.109375 7.390625 -10.910156 6.671875 -10.515625 C 5.960938 -10.117188 5.410156 -9.582031 5.015625 -8.90625 C 4.628906 -8.238281 4.4375 -7.488281 4.4375 -6.65625 C 4.4375 -5.78125 4.628906 -5.003906 5.015625 -4.328125 C 5.410156 -3.660156 5.960938 -3.128906 6.671875 -2.734375 C 7.390625 -2.335938 8.210938 -2.140625 9.140625 -2.140625 Z M 9.140625 -2.140625 "/></g></g></g><g fill="#282120" fill-opacity="1"><g transform="translate(385.754047, 78.839657)"><g><path d="M 10.734375 -13.5 C 12.003906 -13.5 13.019531 -13.242188 13.78125 -12.734375 C 14.550781 -12.234375 15.109375 -11.566406 15.453125 -10.734375 C 15.796875 -9.910156 15.96875 -8.984375 15.96875 -7.953125 L 15.96875 0 L 13.375 0 L 13.375 -7.6875 C 13.375 -8.6875 13.085938 -9.515625 12.515625 -10.171875 C 11.941406 -10.828125 11.09375 -11.140625 9.96875 -11.109375 C 9.1875 -11.109375 8.488281 -10.9375 7.875 -10.59375 C 7.257812 -10.25 6.773438 -9.804688 6.421875 -9.265625 C 6.066406 -8.734375 5.890625 -8.179688 5.890625 -7.609375 L 5.890625 0 L 3.296875 0 L 3.296875 -13.21875 L 5.890625 -13.21875 L 5.890625 -11 C 6.398438 -11.65625 7.070312 -12.234375 7.90625 -12.734375 C 8.75 -13.242188 9.691406 -13.5 10.734375 -13.5 Z M 10.734375 -13.5 "/></g></g></g><g fill="#282120" fill-opacity="1"><g transform="translate(404.969145, 78.839657)"><g><path d="M 5.46875 5.796875 L 8.015625 0.6875 L 1.1875 -13.21875 L 4.203125 -13.21875 L 8.265625 -4.515625 C 8.460938 -4.109375 8.65625 -3.679688 8.84375 -3.234375 C 9.039062 -2.785156 9.207031 -2.367188 9.34375 -1.984375 C 9.507812 -2.390625 9.679688 -2.8125 9.859375 -3.25 C 10.035156 -3.6875 10.234375 -4.140625 10.453125 -4.609375 L 14.046875 -13.21875 L 17.109375 -13.21875 L 10.875 0 L 8.234375 5.796875 Z M 5.46875 5.796875 "/></g></g></g><path fill="#f4b805" d="M 214.5625 62.140625 C 219.230469 61.480469 219.609375 69.894531 215.289062 69.691406 C 211.816406 69.527344 210.503906 62.710938 214.5625 62.140625 " fill-opacity="1" fill-rule="evenodd"/><path fill="#f4b805" d="M 222.066406 62.140625 C 227.210938 61.011719 226.609375 70.203125 221.824219 69.691406 C 218.039062 69.285156 218.777344 62.863281 222.066406 62.140625 " fill-opacity="1" fill-rule="evenodd"/><path fill="#f4b805" d="M 212.867188 72.246094 C 211.039062 76.261719 205.464844 73.425781 206.089844 69.445312 C 206.746094 65.253906 214.199219 67.390625 212.867188 72.246094 " fill-opacity="1" fill-rule="evenodd"/><g clip-path="url(#ced479df3e)"><path fill="#f4b805" d="M 228 67.253906 C 229.199219 67.019531 230.703125 67.449219 231.265625 68.472656 C 232.816406 71.292969 229.960938 74.738281 227.152344 74.4375 C 225.609375 74.277344 224.714844 72.953125 224.609375 71.761719 C 224.378906 69.203125 226.195312 67.605469 228 67.253906 " fill-opacity="1" fill-rule="evenodd"/></g><g clip-path="url(#3654d7f5e5)"><path fill="#f4b805" d="M 217.589844 71.03125 C 221.828125 70.292969 225.722656 73.367188 224.851562 78.578125 C 224.671875 79.65625 223.746094 81.183594 222.429688 81.257812 C 221.367188 81.320312 220.121094 80.277344 218.800781 80.285156 C 217.15625 80.292969 215.859375 81.757812 214.320312 81.015625 C 213.027344 80.390625 212.503906 77.863281 212.746094 76.023438 C 213.09375 73.371094 215.03125 71.472656 217.589844 71.03125 " fill-opacity="1" fill-rule="evenodd"/></g><g fill="#e8e8e8" fill-opacity="0.302"><g transform="translate(50.757418, 53.84444)"><g><path d="M -13.949219 12.347656 C -13.949219 14.296875 -13.347656 16.199219 -12.25 18 C -12.796875 18.847656 -13.199219 19.746094 -13.5 20.648438 C -13.796875 21.546875 -13.949219 22.496094 -13.949219 23.546875 L -13.949219 31.148438 C -13.949219 31.445312 -14.046875 31.695312 -14.25 31.847656 C -14.449219 31.996094 -14.597656 32.097656 -14.796875 32.097656 C -15.398438 32.097656 -15.898438 32.195312 -16.347656 32.398438 C -16.796875 32.597656 -17.199219 32.898438 -17.5 33.246094 C -17.796875 33.546875 -18 33.945312 -18.148438 34.347656 C -18.296875 34.746094 -18.398438 35.097656 -18.398438 35.496094 C -18.398438 35.847656 -18.296875 36.246094 -18.148438 36.644531 C -18 37.046875 -17.796875 37.394531 -17.5 37.695312 C -17.199219 37.996094 -16.796875 38.296875 -16.347656 38.496094 C -15.898438 38.695312 -15.398438 38.847656 -14.796875 38.847656 C -13.5 38.847656 -12.398438 38.597656 -11.398438 38.144531 C -10.398438 37.644531 -9.550781 37.046875 -8.847656 36.347656 C -8.148438 35.597656 -7.648438 34.796875 -7.300781 33.898438 C -6.949219 32.996094 -6.800781 32.097656 -6.800781 31.195312 L -6.800781 23.496094 C -6.800781 22.796875 -6.597656 22.199219 -6.300781 21.699219 C -6 21.199219 -5.550781 20.796875 -5.050781 20.398438 C -4.648438 19.996094 -4.347656 19.648438 -4.148438 19.25 C -3.949219 18.847656 -3.851562 18.398438 -3.851562 17.898438 C -3.851562 17.347656 -3.949219 16.898438 -4.148438 16.5 C -4.347656 16.097656 -4.648438 15.75 -5.050781 15.398438 C -5.550781 15 -6 14.546875 -6.300781 14.046875 C -6.597656 13.546875 -6.800781 13 -6.800781 12.296875 L -6.800781 4.25 C -6.800781 3.351562 -6.949219 2.398438 -7.300781 1.5 C -7.648438 0.601562 -8.148438 -0.25 -8.847656 -0.949219 C -9.550781 -1.699219 -10.398438 -2.300781 -11.398438 -2.75 C -12.398438 -3.25 -13.5 -3.449219 -14.796875 -3.449219 C -15.398438 -3.449219 -15.898438 -3.351562 -16.347656 -3.148438 C -16.796875 -2.949219 -17.199219 -2.648438 -17.5 -2.300781 C -17.796875 -2 -18 -1.601562 -18.148438 -1.199219 C -18.296875 -0.800781 -18.398438 -0.449219 -18.398438 -0.0507812 C -18.398438 0.300781 -18.296875 0.699219 -18.148438 1.101562 C -18 1.5 -17.796875 1.851562 -17.5 2.148438 C -17.199219 2.449219 -16.796875 2.75 -16.347656 2.949219 C -15.898438 3.148438 -15.398438 3.300781 -14.796875 3.300781 C -14.597656 3.300781 -14.449219 3.351562 -14.25 3.550781 C -14.046875 3.699219 -13.949219 3.949219 -13.949219 4.300781 Z M -13.949219 12.347656 "/></g></g></g><g fill="#e8e8e8" fill-opacity="0.502"><g transform="translate(52.652585, 53.441615)"><g><path d="M -13.949219 12.347656 C -13.949219 14.296875 -13.347656 16.199219 -12.25 18 C -12.796875 18.847656 -13.199219 19.746094 -13.5 20.648438 C -13.796875 21.546875 -13.949219 22.496094 -13.949219 23.546875 L -13.949219 31.148438 C -13.949219 31.445312 -14.046875 31.695312 -14.25 31.847656 C -14.449219 31.996094 -14.597656 32.097656 -14.796875 32.097656 C -15.398438 32.097656 -15.898438 32.195312 -16.347656 32.398438 C -16.796875 32.597656 -17.199219 32.898438 -17.5 33.246094 C -17.796875 33.546875 -18 33.945312 -18.148438 34.347656 C -18.296875 34.746094 -18.398438 35.097656 -18.398438 35.496094 C -18.398438 35.847656 -18.296875 36.246094 -18.148438 36.644531 C -18 37.046875 -17.796875 37.394531 -17.5 37.695312 C -17.199219 37.996094 -16.796875 38.296875 -16.347656 38.496094 C -15.898438 38.695312 -15.398438 38.847656 -14.796875 38.847656 C -13.5 38.847656 -12.398438 38.597656 -11.398438 38.144531 C -10.398438 37.644531 -9.550781 37.046875 -8.847656 36.347656 C -8.148438 35.597656 -7.648438 34.796875 -7.300781 33.898438 C -6.949219 32.996094 -6.800781 32.097656 -6.800781 31.195312 L -6.800781 23.496094 C -6.800781 22.796875 -6.597656 22.199219 -6.300781 21.699219 C -6 21.199219 -5.550781 20.796875 -5.050781 20.398438 C -4.648438 19.996094 -4.347656 19.648438 -4.148438 19.25 C -3.949219 18.847656 -3.851562 18.398438 -3.851562 17.898438 C -3.851562 17.347656 -3.949219 16.898438 -4.148438 16.5 C -4.347656 16.097656 -4.648438 15.75 -5.050781 15.398438 C -5.550781 15 -6 14.546875 -6.300781 14.046875 C -6.597656 13.546875 -6.800781 13 -6.800781 12.296875 L -6.800781 4.25 C -6.800781 3.351562 -6.949219 2.398438 -7.300781 1.5 C -7.648438 0.601562 -8.148438 -0.25 -8.847656 -0.949219 C -9.550781 -1.699219 -10.398438 -2.300781 -11.398438 -2.75 C -12.398438 -3.25 -13.5 -3.449219 -14.796875 -3.449219 C -15.398438 -3.449219 -15.898438 -3.351562 -16.347656 -3.148438 C -16.796875 -2.949219 -17.199219 -2.648438 -17.5 -2.300781 C -17.796875 -2 -18 -1.601562 -18.148438 -1.199219 C -18.296875 -0.800781 -18.398438 -0.449219 -18.398438 -0.0507812 C -18.398438 0.300781 -18.296875 0.699219 -18.148438 1.101562 C -18 1.5 -17.796875 1.851562 -17.5 2.148438 C -17.199219 2.449219 -16.796875 2.75 -16.347656 2.949219 C -15.898438 3.148438 -15.398438 3.300781 -14.796875 3.300781 C -14.597656 3.300781 -14.449219 3.351562 -14.25 3.550781 C -14.046875 3.699219 -13.949219 3.949219 -13.949219 4.300781 Z M -13.949219 12.347656 "/></g></g></g><g fill="#ffc107" fill-opacity="1"><g transform="translate(54.54775, 53.038782)"><g><path d="M -13.949219 12.347656 C -13.949219 14.296875 -13.347656 16.199219 -12.25 18 C -12.796875 18.847656 -13.199219 19.746094 -13.5 20.648438 C -13.796875 21.546875 -13.949219 22.496094 -13.949219 23.546875 L -13.949219 31.148438 C -13.949219 31.445312 -14.046875 31.695312 -14.25 31.847656 C -14.449219 31.996094 -14.597656 32.097656 -14.796875 32.097656 C -15.398438 32.097656 -15.898438 32.195312 -16.347656 32.398438 C -16.796875 32.597656 -17.199219 32.898438 -17.5 33.246094 C -17.796875 33.546875 -18 33.945312 -18.148438 34.347656 C -18.296875 34.746094 -18.398438 35.097656 -18.398438 35.496094 C -18.398438 35.847656 -18.296875 36.246094 -18.148438 36.644531 C -18 37.046875 -17.796875 37.394531 -17.5 37.695312 C -17.199219 37.996094 -16.796875 38.296875 -16.347656 38.496094 C -15.898438 38.695312 -15.398438 38.847656 -14.796875 38.847656 C -13.5 38.847656 -12.398438 38.597656 -11.398438 38.144531 C -10.398438 37.644531 -9.550781 37.046875 -8.847656 36.347656 C -8.148438 35.597656 -7.648438 34.796875 -7.300781 33.898438 C -6.949219 32.996094 -6.800781 32.097656 -6.800781 31.195312 L -6.800781 23.496094 C -6.800781 22.796875 -6.597656 22.199219 -6.300781 21.699219 C -6 21.199219 -5.550781 20.796875 -5.050781 20.398438 C -4.648438 19.996094 -4.347656 19.648438 -4.148438 19.25 C -3.949219 18.847656 -3.851562 18.398438 -3.851562 17.898438 C -3.851562 17.347656 -3.949219 16.898438 -4.148438 16.5 C -4.347656 16.097656 -4.648438 15.75 -5.050781 15.398438 C -5.550781 15 -6 14.546875 -6.300781 14.046875 C -6.597656 13.546875 -6.800781 13 -6.800781 12.296875 L -6.800781 4.25 C -6.800781 3.351562 -6.949219 2.398438 -7.300781 1.5 C -7.648438 0.601562 -8.148438 -0.25 -8.847656 -0.949219 C -9.550781 -1.699219 -10.398438 -2.300781 -11.398438 -2.75 C -12.398438 -3.25 -13.5 -3.449219 -14.796875 -3.449219 C -15.398438 -3.449219 -15.898438 -3.351562 -16.347656 -3.148438 C -16.796875 -2.949219 -17.199219 -2.648438 -17.5 -2.300781 C -17.796875 -2 -18 -1.601562 -18.148438 -1.199219 C -18.296875 -0.800781 -18.398438 -0.449219 -18.398438 -0.0507812 C -18.398438 0.300781 -18.296875 0.699219 -18.148438 1.101562 C -18 1.5 -17.796875 1.851562 -17.5 2.148438 C -17.199219 2.449219 -16.796875 2.75 -16.347656 2.949219 C -15.898438 3.148438 -15.398438 3.300781 -14.796875 3.300781 C -14.597656 3.300781 -14.449219 3.351562 -14.25 3.550781 C -14.046875 3.699219 -13.949219 3.949219 -13.949219 4.300781 Z M -13.949219 12.347656 "/></g></g></g><g fill="#e8e8e8" fill-opacity="0.302"><g transform="translate(92.124066, 86.733153)"><g><path d="M 13.949219 -12.347656 C 13.949219 -14.296875 13.347656 -16.199219 12.25 -18 C 12.796875 -18.847656 13.199219 -19.746094 13.5 -20.648438 C 13.796875 -21.546875 13.949219 -22.496094 13.949219 -23.546875 L 13.949219 -31.148438 C 13.949219 -31.445312 14.046875 -31.695312 14.25 -31.847656 C 14.449219 -31.996094 14.597656 -32.097656 14.796875 -32.097656 C 15.398438 -32.097656 15.898438 -32.195312 16.347656 -32.398438 C 16.796875 -32.597656 17.199219 -32.898438 17.5 -33.246094 C 17.796875 -33.546875 18 -33.945312 18.148438 -34.347656 C 18.296875 -34.746094 18.398438 -35.097656 18.398438 -35.496094 C 18.398438 -35.847656 18.296875 -36.246094 18.148438 -36.644531 C 18 -37.046875 17.796875 -37.394531 17.5 -37.695312 C 17.199219 -37.996094 16.796875 -38.296875 16.347656 -38.496094 C 15.898438 -38.695312 15.398438 -38.847656 14.796875 -38.847656 C 13.5 -38.847656 12.398438 -38.597656 11.398438 -38.144531 C 10.398438 -37.644531 9.550781 -37.046875 8.847656 -36.347656 C 8.148438 -35.597656 7.648438 -34.796875 7.300781 -33.898438 C 6.949219 -32.996094 6.800781 -32.097656 6.800781 -31.195312 L 6.800781 -23.496094 C 6.800781 -22.796875 6.597656 -22.199219 6.300781 -21.699219 C 6 -21.199219 5.550781 -20.796875 5.050781 -20.398438 C 4.648438 -19.996094 4.347656 -19.648438 4.148438 -19.25 C 3.949219 -18.847656 3.851562 -18.398438 3.851562 -17.898438 C 3.851562 -17.347656 3.949219 -16.898438 4.148438 -16.5 C 4.347656 -16.097656 4.648438 -15.75 5.050781 -15.398438 C 5.550781 -15 6 -14.546875 6.300781 -14.046875 C 6.597656 -13.546875 6.800781 -13 6.800781 -12.296875 L 6.800781 -4.25 C 6.800781 -3.351562 6.949219 -2.398438 7.300781 -1.5 C 7.648438 -0.601562 8.148438 0.25 8.847656 0.949219 C 9.550781 1.699219 10.398438 2.300781 11.398438 2.75 C 12.398438 3.25 13.5 3.449219 14.796875 3.449219 C 15.398438 3.449219 15.898438 3.351562 16.347656 3.148438 C 16.796875 2.949219 17.199219 2.648438 17.5 2.300781 C 17.796875 2 18 1.601562 18.148438 1.199219 C 18.296875 0.800781 18.398438 0.449219 18.398438 0.0507812 C 18.398438 -0.300781 18.296875 -0.699219 18.148438 -1.101562 C 18 -1.5 17.796875 -1.851562 17.5 -2.148438 C 17.199219 -2.449219 16.796875 -2.75 16.347656 -2.949219 C 15.898438 -3.148438 15.398438 -3.300781 14.796875 -3.300781 C 14.597656 -3.300781 14.449219 -3.351562 14.25 -3.550781 C 14.046875 -3.699219 13.949219 -3.949219 13.949219 -4.300781 Z M 13.949219 -12.347656 "/></g></g></g><g fill="#e8e8e8" fill-opacity="0.502"><g transform="translate(90.228903, 87.135986)"><g><path d="M 13.949219 -12.347656 C 13.949219 -14.296875 13.347656 -16.199219 12.25 -18 C 12.796875 -18.847656 13.199219 -19.746094 13.5 -20.648438 C 13.796875 -21.546875 13.949219 -22.496094 13.949219 -23.546875 L 13.949219 -31.148438 C 13.949219 -31.445312 14.046875 -31.695312 14.25 -31.847656 C 14.449219 -31.996094 14.597656 -32.097656 14.796875 -32.097656 C 15.398438 -32.097656 15.898438 -32.195312 16.347656 -32.398438 C 16.796875 -32.597656 17.199219 -32.898438 17.5 -33.246094 C 17.796875 -33.546875 18 -33.945312 18.148438 -34.347656 C 18.296875 -34.746094 18.398438 -35.097656 18.398438 -35.496094 C 18.398438 -35.847656 18.296875 -36.246094 18.148438 -36.644531 C 18 -37.046875 17.796875 -37.394531 17.5 -37.695312 C 17.199219 -37.996094 16.796875 -38.296875 16.347656 -38.496094 C 15.898438 -38.695312 15.398438 -38.847656 14.796875 -38.847656 C 13.5 -38.847656 12.398438 -38.597656 11.398438 -38.144531 C 10.398438 -37.644531 9.550781 -37.046875 8.847656 -36.347656 C 8.148438 -35.597656 7.648438 -34.796875 7.300781 -33.898438 C 6.949219 -32.996094 6.800781 -32.097656 6.800781 -31.195312 L 6.800781 -23.496094 C 6.800781 -22.796875 6.597656 -22.199219 6.300781 -21.699219 C 6 -21.199219 5.550781 -20.796875 5.050781 -20.398438 C 4.648438 -19.996094 4.347656 -19.648438 4.148438 -19.25 C 3.949219 -18.847656 3.851562 -18.398438 3.851562 -17.898438 C 3.851562 -17.347656 3.949219 -16.898438 4.148438 -16.5 C 4.347656 -16.097656 4.648438 -15.75 5.050781 -15.398438 C 5.550781 -15 6 -14.546875 6.300781 -14.046875 C 6.597656 -13.546875 6.800781 -13 6.800781 -12.296875 L 6.800781 -4.25 C 6.800781 -3.351562 6.949219 -2.398438 7.300781 -1.5 C 7.648438 -0.601562 8.148438 0.25 8.847656 0.949219 C 9.550781 1.699219 10.398438 2.300781 11.398438 2.75 C 12.398438 3.25 13.5 3.449219 14.796875 3.449219 C 15.398438 3.449219 15.898438 3.351562 16.347656 3.148438 C 16.796875 2.949219 17.199219 2.648438 17.5 2.300781 C 17.796875 2 18 1.601562 18.148438 1.199219 C 18.296875 0.800781 18.398438 0.449219 18.398438 0.0507812 C 18.398438 -0.300781 18.296875 -0.699219 18.148438 -1.101562 C 18 -1.5 17.796875 -1.851562 17.5 -2.148438 C 17.199219 -2.449219 16.796875 -2.75 16.347656 -2.949219 C 15.898438 -3.148438 15.398438 -3.300781 14.796875 -3.300781 C 14.597656 -3.300781 14.449219 -3.351562 14.25 -3.550781 C 14.046875 -3.699219 13.949219 -3.949219 13.949219 -4.300781 Z M 13.949219 -12.347656 "/></g></g></g><g fill="#ffc107" fill-opacity="1"><g transform="translate(88.333739, 87.538814)"><g><path d="M 13.949219 -12.347656 C 13.949219 -14.296875 13.347656 -16.199219 12.25 -18 C 12.796875 -18.847656 13.199219 -19.746094 13.5 -20.648438 C 13.796875 -21.546875 13.949219 -22.496094 13.949219 -23.546875 L 13.949219 -31.148438 C 13.949219 -31.445312 14.046875 -31.695312 14.25 -31.847656 C 14.449219 -31.996094 14.597656 -32.097656 14.796875 -32.097656 C 15.398438 -32.097656 15.898438 -32.195312 16.347656 -32.398438 C 16.796875 -32.597656 17.199219 -32.898438 17.5 -33.246094 C 17.796875 -33.546875 18 -33.945312 18.148438 -34.347656 C 18.296875 -34.746094 18.398438 -35.097656 18.398438 -35.496094 C 18.398438 -35.847656 18.296875 -36.246094 18.148438 -36.644531 C 18 -37.046875 17.796875 -37.394531 17.5 -37.695312 C 17.199219 -37.996094 16.796875 -38.296875 16.347656 -38.496094 C 15.898438 -38.695312 15.398438 -38.847656 14.796875 -38.847656 C 13.5 -38.847656 12.398438 -38.597656 11.398438 -38.144531 C 10.398438 -37.644531 9.550781 -37.046875 8.847656 -36.347656 C 8.148438 -35.597656 7.648438 -34.796875 7.300781 -33.898438 C 6.949219 -32.996094 6.800781 -32.097656 6.800781 -31.195312 L 6.800781 -23.496094 C 6.800781 -22.796875 6.597656 -22.199219 6.300781 -21.699219 C 6 -21.199219 5.550781 -20.796875 5.050781 -20.398438 C 4.648438 -19.996094 4.347656 -19.648438 4.148438 -19.25 C 3.949219 -18.847656 3.851562 -18.398438 3.851562 -17.898438 C 3.851562 -17.347656 3.949219 -16.898438 4.148438 -16.5 C 4.347656 -16.097656 4.648438 -15.75 5.050781 -15.398438 C 5.550781 -15 6 -14.546875 6.300781 -14.046875 C 6.597656 -13.546875 6.800781 -13 6.800781 -12.296875 L 6.800781 -4.25 C 6.800781 -3.351562 6.949219 -2.398438 7.300781 -1.5 C 7.648438 -0.601562 8.148438 0.25 8.847656 0.949219 C 9.550781 1.699219 10.398438 2.300781 11.398438 2.75 C 12.398438 3.25 13.5 3.449219 14.796875 3.449219 C 15.398438 3.449219 15.898438 3.351562 16.347656 3.148438 C 16.796875 2.949219 17.199219 2.648438 17.5 2.300781 C 17.796875 2 18 1.601562 18.148438 1.199219 C 18.296875 0.800781 18.398438 0.449219 18.398438 0.0507812 C 18.398438 -0.300781 18.296875 -0.699219 18.148438 -1.101562 C 18 -1.5 17.796875 -1.851562 17.5 -2.148438 C 17.199219 -2.449219 16.796875 -2.75 16.347656 -2.949219 C 15.898438 -3.148438 15.398438 -3.300781 14.796875 -3.300781 C 14.597656 -3.300781 14.449219 -3.351562 14.25 -3.550781 C 14.046875 -3.699219 13.949219 -3.949219 13.949219 -4.300781 Z M 13.949219 -12.347656 "/></g></g></g><g fill="#e8e8e8" fill-opacity="0.302"><g transform="translate(54.089051, 64.770888)"><g><path d="M 10.753906 -3.570312 C 10.753906 -3.949219 10.667969 -4.367188 10.5 -4.789062 C 10.332031 -5.207031 10.078125 -5.585938 9.785156 -5.921875 C 9.449219 -6.257812 9.070312 -6.511719 8.609375 -6.761719 C 8.105469 -6.972656 7.558594 -7.097656 6.972656 -7.097656 C 6.34375 -7.097656 5.796875 -6.972656 5.335938 -6.761719 C 4.828125 -6.511719 4.453125 -6.257812 4.15625 -5.921875 C 3.820312 -5.585938 3.613281 -5.207031 3.445312 -4.789062 C 3.277344 -4.367188 3.191406 -3.949219 3.191406 -3.570312 C 3.191406 -3.148438 3.277344 -2.773438 3.445312 -2.351562 C 3.613281 -1.933594 3.820312 -1.511719 4.15625 -1.175781 C 4.453125 -0.839844 4.828125 -0.546875 5.335938 -0.335938 C 5.796875 -0.0859375 6.34375 0 6.972656 0 C 7.558594 0 8.105469 -0.0859375 8.609375 -0.335938 C 9.070312 -0.546875 9.449219 -0.839844 9.785156 -1.175781 C 10.078125 -1.511719 10.332031 -1.933594 10.5 -2.351562 C 10.667969 -2.773438 10.753906 -3.148438 10.753906 -3.570312 Z M 10.753906 -3.570312 "/></g></g></g><g fill="#e8e8e8" fill-opacity="0.502"><g transform="translate(52.497114, 65.109267)"><g><path d="M 10.753906 -3.570312 C 10.753906 -3.949219 10.667969 -4.367188 10.5 -4.789062 C 10.332031 -5.207031 10.078125 -5.585938 9.785156 -5.921875 C 9.449219 -6.257812 9.070312 -6.511719 8.609375 -6.761719 C 8.105469 -6.972656 7.558594 -7.097656 6.972656 -7.097656 C 6.34375 -7.097656 5.796875 -6.972656 5.335938 -6.761719 C 4.828125 -6.511719 4.453125 -6.257812 4.15625 -5.921875 C 3.820312 -5.585938 3.613281 -5.207031 3.445312 -4.789062 C 3.277344 -4.367188 3.191406 -3.949219 3.191406 -3.570312 C 3.191406 -3.148438 3.277344 -2.773438 3.445312 -2.351562 C 3.613281 -1.933594 3.820312 -1.511719 4.15625 -1.175781 C 4.453125 -0.839844 4.828125 -0.546875 5.335938 -0.335938 C 5.796875 -0.0859375 6.34375 0 6.972656 0 C 7.558594 0 8.105469 -0.0859375 8.609375 -0.335938 C 9.070312 -0.546875 9.449219 -0.839844 9.785156 -1.175781 C 10.078125 -1.511719 10.332031 -1.933594 10.5 -2.351562 C 10.667969 -2.773438 10.753906 -3.148438 10.753906 -3.570312 Z M 10.753906 -3.570312 "/></g></g></g><g fill="#ffc107" fill-opacity="1"><g transform="translate(50.905182, 65.447642)"><g><path d="M 10.753906 -3.570312 C 10.753906 -3.949219 10.667969 -4.367188 10.5 -4.789062 C 10.332031 -5.207031 10.078125 -5.585938 9.785156 -5.921875 C 9.449219 -6.257812 9.070312 -6.511719 8.609375 -6.761719 C 8.105469 -6.972656 7.558594 -7.097656 6.972656 -7.097656 C 6.34375 -7.097656 5.796875 -6.972656 5.335938 -6.761719 C 4.828125 -6.511719 4.453125 -6.257812 4.15625 -5.921875 C 3.820312 -5.585938 3.613281 -5.207031 3.445312 -4.789062 C 3.277344 -4.367188 3.191406 -3.949219 3.191406 -3.570312 C 3.191406 -3.148438 3.277344 -2.773438 3.445312 -2.351562 C 3.613281 -1.933594 3.820312 -1.511719 4.15625 -1.175781 C 4.453125 -0.839844 4.828125 -0.546875 5.335938 -0.335938 C 5.796875 -0.0859375 6.34375 0 6.972656 0 C 7.558594 0 8.105469 -0.0859375 8.609375 -0.335938 C 9.070312 -0.546875 9.449219 -0.839844 9.785156 -1.175781 C 10.078125 -1.511719 10.332031 -1.933594 10.5 -2.351562 C 10.667969 -2.773438 10.753906 -3.148438 10.753906 -3.570312 Z M 10.753906 -3.570312 "/></g></g></g><g fill="#e8e8e8" fill-opacity="0.302"><g transform="translate(79.495729, 71.487622)"><g><path d="M 7.027344 -4.285156 C 7.363281 -4.285156 7.644531 -4.339844 7.894531 -4.453125 C 8.148438 -4.5625 8.371094 -4.730469 8.539062 -4.925781 C 8.707031 -5.09375 8.820312 -5.320312 8.902344 -5.542969 C 8.988281 -5.765625 9.042969 -5.964844 9.042969 -6.1875 C 9.042969 -6.605469 8.875 -7 8.566406 -7.390625 L 6.859375 -9.296875 L 6.859375 -9.324219 C 6.832031 -9.324219 6.832031 -9.324219 6.832031 -9.378906 C 6.832031 -9.378906 6.832031 -9.40625 6.832031 -9.40625 C 6.832031 -9.40625 6.859375 -9.433594 6.859375 -9.464844 L 8.566406 -11.367188 C 8.875 -11.730469 9.042969 -12.121094 9.042969 -12.570312 C 9.042969 -12.765625 8.988281 -12.992188 8.902344 -13.214844 C 8.820312 -13.4375 8.707031 -13.636719 8.539062 -13.832031 C 8.371094 -14 8.148438 -14.167969 7.894531 -14.277344 C 7.644531 -14.390625 7.363281 -14.476562 7.027344 -14.476562 C 6.691406 -14.476562 6.410156 -14.390625 6.132812 -14.277344 C 5.851562 -14.167969 5.628906 -14 5.460938 -13.804688 L 2.574219 -10.5 C 2.269531 -10.191406 2.128906 -9.828125 2.128906 -9.378906 C 2.128906 -9.15625 2.15625 -8.960938 2.238281 -8.761719 C 2.296875 -8.566406 2.40625 -8.398438 2.574219 -8.257812 L 5.460938 -4.957031 C 5.628906 -4.730469 5.851562 -4.5625 6.132812 -4.453125 C 6.410156 -4.339844 6.691406 -4.285156 7.027344 -4.285156 Z M 7.027344 -4.285156 "/></g></g></g><g fill="#e8e8e8" fill-opacity="0.502"><g transform="translate(78.434434, 71.713207)"><g><path d="M 7.027344 -4.285156 C 7.363281 -4.285156 7.644531 -4.339844 7.894531 -4.453125 C 8.148438 -4.5625 8.371094 -4.730469 8.539062 -4.925781 C 8.707031 -5.09375 8.820312 -5.320312 8.902344 -5.542969 C 8.988281 -5.765625 9.042969 -5.964844 9.042969 -6.1875 C 9.042969 -6.605469 8.875 -7 8.566406 -7.390625 L 6.859375 -9.296875 L 6.859375 -9.324219 C 6.832031 -9.324219 6.832031 -9.324219 6.832031 -9.378906 C 6.832031 -9.378906 6.832031 -9.40625 6.832031 -9.40625 C 6.832031 -9.40625 6.859375 -9.433594 6.859375 -9.464844 L 8.566406 -11.367188 C 8.875 -11.730469 9.042969 -12.121094 9.042969 -12.570312 C 9.042969 -12.765625 8.988281 -12.992188 8.902344 -13.214844 C 8.820312 -13.4375 8.707031 -13.636719 8.539062 -13.832031 C 8.371094 -14 8.148438 -14.167969 7.894531 -14.277344 C 7.644531 -14.390625 7.363281 -14.476562 7.027344 -14.476562 C 6.691406 -14.476562 6.410156 -14.390625 6.132812 -14.277344 C 5.851562 -14.167969 5.628906 -14 5.460938 -13.804688 L 2.574219 -10.5 C 2.269531 -10.191406 2.128906 -9.828125 2.128906 -9.378906 C 2.128906 -9.15625 2.15625 -8.960938 2.238281 -8.761719 C 2.296875 -8.566406 2.40625 -8.398438 2.574219 -8.257812 L 5.460938 -4.957031 C 5.628906 -4.730469 5.851562 -4.5625 6.132812 -4.453125 C 6.410156 -4.339844 6.691406 -4.285156 7.027344 -4.285156 Z M 7.027344 -4.285156 "/></g></g></g><g fill="#ffc107" fill-opacity="1"><g transform="translate(77.37315, 71.938788)"><g><path d="M 7.027344 -4.285156 C 7.363281 -4.285156 7.644531 -4.339844 7.894531 -4.453125 C 8.148438 -4.5625 8.371094 -4.730469 8.539062 -4.925781 C 8.707031 -5.09375 8.820312 -5.320312 8.902344 -5.542969 C 8.988281 -5.765625 9.042969 -5.964844 9.042969 -6.1875 C 9.042969 -6.605469 8.875 -7 8.566406 -7.390625 L 6.859375 -9.296875 L 6.859375 -9.324219 C 6.832031 -9.324219 6.832031 -9.324219 6.832031 -9.378906 C 6.832031 -9.378906 6.832031 -9.40625 6.832031 -9.40625 C 6.832031 -9.40625 6.859375 -9.433594 6.859375 -9.464844 L 8.566406 -11.367188 C 8.875 -11.730469 9.042969 -12.121094 9.042969 -12.570312 C 9.042969 -12.765625 8.988281 -12.992188 8.902344 -13.214844 C 8.820312 -13.4375 8.707031 -13.636719 8.539062 -13.832031 C 8.371094 -14 8.148438 -14.167969 7.894531 -14.277344 C 7.644531 -14.390625 7.363281 -14.476562 7.027344 -14.476562 C 6.691406 -14.476562 6.410156 -14.390625 6.132812 -14.277344 C 5.851562 -14.167969 5.628906 -14 5.460938 -13.804688 L 2.574219 -10.5 C 2.269531 -10.191406 2.128906 -9.828125 2.128906 -9.378906 C 2.128906 -9.15625 2.15625 -8.960938 2.238281 -8.761719 C 2.296875 -8.566406 2.40625 -8.398438 2.574219 -8.257812 L 5.460938 -4.957031 C 5.628906 -4.730469 5.851562 -4.5625 6.132812 -4.453125 C 6.410156 -4.339844 6.691406 -4.285156 7.027344 -4.285156 Z M 7.027344 -4.285156 "/></g></g></g><g fill="#e8e8e8" fill-opacity="0.302"><g transform="translate(59.430103, 78.802497)"><g><path d="M -1.917969 6.175781 C -1.085938 7.007812 -0.160156 7.773438 0.863281 8.445312 C 1.886719 9.085938 3.007812 9.664062 4.160156 10.109375 C 5.3125 10.558594 6.464844 10.910156 7.679688 11.167969 C 8.894531 11.390625 10.078125 11.519531 11.261719 11.519531 C 12.414062 11.519531 13.597656 11.390625 14.8125 11.167969 C 16.03125 10.910156 17.179688 10.558594 18.332031 10.109375 C 19.484375 9.664062 20.574219 9.085938 21.597656 8.445312 C 22.621094 7.773438 23.582031 7.007812 24.414062 6.175781 C 24.507812 6.046875 24.605469 5.917969 24.699219 5.726562 C 24.765625 5.535156 24.828125 5.34375 24.828125 5.121094 C 24.828125 4.863281 24.796875 4.671875 24.730469 4.511719 C 24.667969 4.320312 24.570312 4.191406 24.476562 4.09375 L 23.261719 2.785156 C 23.132812 2.625 22.972656 2.527344 22.8125 2.464844 C 22.652344 2.398438 22.523438 2.398438 22.398438 2.398438 C 22.203125 2.398438 22.042969 2.429688 21.917969 2.496094 C 21.757812 2.558594 21.628906 2.625 21.53125 2.75 C 20.0625 4.0625 18.492188 5.085938 16.828125 5.824219 C 15.164062 6.527344 13.308594 6.910156 11.261719 6.910156 C 9.214844 6.910156 7.359375 6.527344 5.695312 5.824219 C 4.03125 5.121094 2.464844 4.09375 0.992188 2.75 C 0.863281 2.625 0.734375 2.558594 0.609375 2.496094 C 0.480469 2.429688 0.320312 2.398438 0.160156 2.398438 C 0 2.398438 -0.160156 2.398438 -0.320312 2.464844 C -0.480469 2.527344 -0.609375 2.625 -0.734375 2.785156 L -1.917969 4.09375 C -2.046875 4.191406 -2.144531 4.320312 -2.207031 4.511719 C -2.304688 4.703125 -2.335938 4.894531 -2.335938 5.152344 C -2.335938 5.34375 -2.304688 5.535156 -2.207031 5.726562 C -2.144531 5.917969 -2.046875 6.046875 -1.917969 6.175781 Z M -1.917969 6.175781 "/></g></g></g><g fill="#e8e8e8" fill-opacity="0.502"><g transform="translate(59.172291, 77.589593)"><g><path d="M -1.917969 6.175781 C -1.085938 7.007812 -0.160156 7.773438 0.863281 8.445312 C 1.886719 9.085938 3.007812 9.664062 4.160156 10.109375 C 5.3125 10.558594 6.464844 10.910156 7.679688 11.167969 C 8.894531 11.390625 10.078125 11.519531 11.261719 11.519531 C 12.414062 11.519531 13.597656 11.390625 14.8125 11.167969 C 16.03125 10.910156 17.179688 10.558594 18.332031 10.109375 C 19.484375 9.664062 20.574219 9.085938 21.597656 8.445312 C 22.621094 7.773438 23.582031 7.007812 24.414062 6.175781 C 24.507812 6.046875 24.605469 5.917969 24.699219 5.726562 C 24.765625 5.535156 24.828125 5.34375 24.828125 5.121094 C 24.828125 4.863281 24.796875 4.671875 24.730469 4.511719 C 24.667969 4.320312 24.570312 4.191406 24.476562 4.09375 L 23.261719 2.785156 C 23.132812 2.625 22.972656 2.527344 22.8125 2.464844 C 22.652344 2.398438 22.523438 2.398438 22.398438 2.398438 C 22.203125 2.398438 22.042969 2.429688 21.917969 2.496094 C 21.757812 2.558594 21.628906 2.625 21.53125 2.75 C 20.0625 4.0625 18.492188 5.085938 16.828125 5.824219 C 15.164062 6.527344 13.308594 6.910156 11.261719 6.910156 C 9.214844 6.910156 7.359375 6.527344 5.695312 5.824219 C 4.03125 5.121094 2.464844 4.09375 0.992188 2.75 C 0.863281 2.625 0.734375 2.558594 0.609375 2.496094 C 0.480469 2.429688 0.320312 2.398438 0.160156 2.398438 C 0 2.398438 -0.160156 2.398438 -0.320312 2.464844 C -0.480469 2.527344 -0.609375 2.625 -0.734375 2.785156 L -1.917969 4.09375 C -2.046875 4.191406 -2.144531 4.320312 -2.207031 4.511719 C -2.304688 4.703125 -2.335938 4.894531 -2.335938 5.152344 C -2.335938 5.34375 -2.304688 5.535156 -2.207031 5.726562 C -2.144531 5.917969 -2.046875 6.046875 -1.917969 6.175781 Z M -1.917969 6.175781 "/></g></g></g><g fill="#ffc107" fill-opacity="1"><g transform="translate(58.914478, 76.376688)"><g><path d="M -1.917969 6.175781 C -1.085938 7.007812 -0.160156 7.773438 0.863281 8.445312 C 1.886719 9.085938 3.007812 9.664062 4.160156 10.109375 C 5.3125 10.558594 6.464844 10.910156 7.679688 11.167969 C 8.894531 11.390625 10.078125 11.519531 11.261719 11.519531 C 12.414062 11.519531 13.597656 11.390625 14.8125 11.167969 C 16.03125 10.910156 17.179688 10.558594 18.332031 10.109375 C 19.484375 9.664062 20.574219 9.085938 21.597656 8.445312 C 22.621094 7.773438 23.582031 7.007812 24.414062 6.175781 C 24.507812 6.046875 24.605469 5.917969 24.699219 5.726562 C 24.765625 5.535156 24.828125 5.34375 24.828125 5.121094 C 24.828125 4.863281 24.796875 4.671875 24.730469 4.511719 C 24.667969 4.320312 24.570312 4.191406 24.476562 4.09375 L 23.261719 2.785156 C 23.132812 2.625 22.972656 2.527344 22.8125 2.464844 C 22.652344 2.398438 22.523438 2.398438 22.398438 2.398438 C 22.203125 2.398438 22.042969 2.429688 21.917969 2.496094 C 21.757812 2.558594 21.628906 2.625 21.53125 2.75 C 20.0625 4.0625 18.492188 5.085938 16.828125 5.824219 C 15.164062 6.527344 13.308594 6.910156 11.261719 6.910156 C 9.214844 6.910156 7.359375 6.527344 5.695312 5.824219 C 4.03125 5.121094 2.464844 4.09375 0.992188 2.75 C 0.863281 2.625 0.734375 2.558594 0.609375 2.496094 C 0.480469 2.429688 0.320312 2.398438 0.160156 2.398438 C 0 2.398438 -0.160156 2.398438 -0.320312 2.464844 C -0.480469 2.527344 -0.609375 2.625 -0.734375 2.785156 L -1.917969 4.09375 C -2.046875 4.191406 -2.144531 4.320312 -2.207031 4.511719 C -2.304688 4.703125 -2.335938 4.894531 -2.335938 5.152344 C -2.335938 5.34375 -2.304688 5.535156 -2.207031 5.726562 C -2.144531 5.917969 -2.046875 6.046875 -1.917969 6.175781 Z M -1.917969 6.175781 "/></g></g></g></svg>